# xmcd
#
# Track frame offsets:
#	183
#	19293
#	35593
#	50863
#	64493
#	78158
#	91845
#	107195
#	119873
#	135100
#	148275
#	163840
#	183513
#	200498
#	219100
#	239438
#	255413
#	271583
#	286385
#	300108
#	313470
#
# Disc length: 4353 seconds
#
# Revision: 0
# Processed by: cddbd v1.5.2PL0 Copyright (c) Steve Scherf et al.
# Submitted via: dBpowerAMP V4.0
#
DISCID=3810ff15
DTITLE=Nelson Ned - Exitos de Nelson Ned
DYEAR=1900
DGENRE=Latin
TTITLE0=Feliz cumpleaños
TTITLE1=Todo pasara
TTITLE2=El preso
TTITLE3=Dejame si estoy llorando
TTITLE4=A pesar de todo
TTITLE5=Adios mariquita linda
TTITLE6=Todavia duele
TTITLE7=Todavia creo en el amor
TTITLE8=La biblia
TTITLE9=Mi sangre latina
TTITLE10=Que mal amada estas
TTITLE11=Quien eres tu
TTITLE12=Tus ojos castaños
TTITLE13=Jurame
TTITLE14=Si las flores puedieran hablar
TTITLE15=Te quiero te quiero
TTITLE16=Yo la voy a matar
TTITLE17=Fiera
TTITLE18=Estoy amando a un hombre
TTITLE19=Ojos españoles
TTITLE20=Lo que paso paso
EXTD=
EXTT0=
EXTT1=
EXTT2=
EXTT3=
EXTT4=
EXTT5=
EXTT6=
EXTT7=
EXTT8=
EXTT9=
EXTT10=
EXTT11=
EXTT12=
EXTT13=
EXTT14=
EXTT15=
EXTT16=
EXTT17=
EXTT18=
EXTT19=
EXTT20=
PLAYORDER=
